<?xml version="1.0" encoding="UTF-8" standalone="no"?>
<!-- Created with Digital by H.Neemann -->
<!-- created: Tue Mar 19 16:15:26 BRT 2024 -->

<svg
   xmlns:svg="http://www.w3.org/2000/svg"
   xmlns="http://www.w3.org/2000/svg"
   width="171.15mm"
   height="217.95mm"
   viewBox="130 -676 1141 1453">
<g stroke-linecap="square">
<path d="M 320,-140 L 320,0 L 800,0" stroke="#0000b2" stroke-width="4.0" fill="none"/>
<path d="M 920,-580 L 1080,-580 L 1080,-160 L 1160,-160" stroke="#0000b2" stroke-width="4.0" fill="none"/>
<path d="M 280,260 L 360,260 L 380,260" stroke="#0000b2" stroke-width="4.0" fill="none"/>
<path d="M 560,260 L 580,260 L 580,400 L 620,400" stroke="#0000b2" stroke-width="4.0" fill="none"/>
<path d="M 700,580 L 720,580 L 720,560 L 840,560" stroke="#0000b2" stroke-width="4.0" fill="none"/>
<path d="M 280,580 L 440,580 L 440,640 L 1180,640 L 1180,240 L 780,240 L 780,60 L 800,60" stroke="#0000b2" stroke-width="4.0" fill="none"/>
<path d="M 280,520 L 460,520 L 460,300 L 640,300 L 640,40 L 800,40" stroke="#0000b2" stroke-width="4.0" fill="none"/>
<path d="M 960,520 L 980,520 L 980,500 L 1020,500" stroke="#0000b2" stroke-width="4.0" fill="none"/>
<path d="M 760,700 L 760,520 L 840,520" stroke="#0000b2" stroke-width="4.0" fill="none"/>
<path d="M 320,-400 L 320,-140 L 800,-140" stroke="#0000b2" stroke-width="4.0" fill="none"/>
<path d="M 960,400 L 980,400 L 980,380 L 1020,380" stroke="#0000b2" stroke-width="4.0" fill="none"/>
<path d="M 280,400 L 520,400 L 520,320 L 620,320 L 620,-80 L 800,-80" stroke="#0000b2" stroke-width="4.0" fill="none"/>
<path d="M 920,-340 L 1020,-340 L 1020,-100 L 1160,-100" stroke="#0000b2" stroke-width="4.0" fill="none"/>
<path d="M 280,340 L 540,340 L 600,340 L 600,-100 L 800,-100" stroke="#0000b2" stroke-width="4.0" fill="none"/>
<path d="M 920,20 L 1160,20" stroke="#0000b2" stroke-width="4.0" fill="none"/>
<path d="M 580,260 L 580,20 L 800,20" stroke="#0000b2" stroke-width="4.0" fill="none"/>
<path d="M 740,-600 L 800,-600" stroke="#0000b2" stroke-width="4.0" fill="none"/>
<path d="M 440,280 L 480,280" stroke="#0000b2" stroke-width="4.0" fill="none"/>
<path d="M 580,400 L 580,600 L 620,600" stroke="#0000b2" stroke-width="4.0" fill="none"/>
<path d="M 960,540 L 980,540 L 980,560 L 1020,560" stroke="#0000b2" stroke-width="4.0" fill="none"/>
<path d="M 740,420 L 740,540 L 840,540" stroke="#0000b2" stroke-width="4.0" fill="none"/>
<path d="M 340,-420 L 340,-160 L 800,-160" stroke="#0000b2" stroke-width="4.0" fill="none"/>
<path d="M 280,100 L 340,100 L 760,100 L 760,400 L 840,400" stroke="#0000b2" stroke-width="4.0" fill="none"/>
<path d="M 960,420 L 980,420 L 980,440 L 1020,440" stroke="#0000b2" stroke-width="4.0" fill="none"/>
<path d="M 740,-360 L 800,-360" stroke="#0000b2" stroke-width="4.0" fill="none"/>
<path d="M 540,340 L 540,360 L 620,360" stroke="#0000b2" stroke-width="4.0" fill="none"/>
<path d="M 460,520 L 460,560 L 620,560" stroke="#0000b2" stroke-width="4.0" fill="none"/>
<path d="M 360,260 L 360,240 L 480,240" stroke="#0000b2" stroke-width="4.0" fill="none"/>
<path d="M 280,180 L 320,180 L 740,180 L 740,420 L 840,420" stroke="#0000b2" stroke-width="4.0" fill="none"/>
<path d="M 920,-120 L 960,-120 L 960,-40 L 1160,-40" stroke="#0000b2" stroke-width="4.0" fill="none"/>
<path d="M 580,-380 L 580,-120 L 800,-120" stroke="#0000b2" stroke-width="4.0" fill="none"/>
<path d="M 700,380 L 720,380 L 720,440 L 840,440" stroke="#0000b2" stroke-width="4.0" fill="none"/>
<path d="M 800,-400 L 320,-400 L 320,-640 L 800,-640" stroke="#0000b2" stroke-width="4.0" fill="none"/>
<path d="M 320,0 L 320,180" stroke="#0000b2" stroke-width="4.0" fill="none"/>
<path d="M 740,540 L 740,720" stroke="#0000b2" stroke-width="4.0" fill="none"/>
<path d="M 800,-620 L 580,-620 L 580,-380 L 800,-380" stroke="#0000b2" stroke-width="4.0" fill="none"/>
<path d="M 580,-120 L 580,20" stroke="#0000b2" stroke-width="4.0" fill="none"/>
<path d="M 800,-660 L 340,-660 L 340,-420 L 800,-420" stroke="#0000b2" stroke-width="4.0" fill="none"/>
<path d="M 340,-160 L 340,-20" stroke="#0000b2" stroke-width="4.0" fill="none"/>
<path d="M 800,-20 L 340,-20 L 340,100 L 340,280 L 380,280" stroke="#0000b2" stroke-width="4.0" fill="none"/>
<path d="M 760,400 L 760,520" stroke="#0000b2" stroke-width="4.0" fill="none"/>
<g>
<circle cx="320.0" cy="0.0" r="4.0" stroke="#0000b2" stroke-width="4.0" fill="#0000b2" />
<circle cx="360.0" cy="260.0" r="4.0" stroke="#0000b2" stroke-width="4.0" fill="#0000b2" />
<circle cx="580.0" cy="260.0" r="4.0" stroke="#0000b2" stroke-width="4.0" fill="#0000b2" />
<circle cx="460.0" cy="520.0" r="4.0" stroke="#0000b2" stroke-width="4.0" fill="#0000b2" />
<circle cx="760.0" cy="520.0" r="4.0" stroke="#0000b2" stroke-width="4.0" fill="#0000b2" />
<circle cx="320.0" cy="-140.0" r="4.0" stroke="#0000b2" stroke-width="4.0" fill="#0000b2" />
<circle cx="320.0" cy="-400.0" r="4.0" stroke="#0000b2" stroke-width="4.0" fill="#0000b2" />
<circle cx="580.0" cy="400.0" r="4.0" stroke="#0000b2" stroke-width="4.0" fill="#0000b2" />
<circle cx="760.0" cy="400.0" r="4.0" stroke="#0000b2" stroke-width="4.0" fill="#0000b2" />
<circle cx="340.0" cy="-20.0" r="4.0" stroke="#0000b2" stroke-width="4.0" fill="#0000b2" />
<circle cx="540.0" cy="340.0" r="4.0" stroke="#0000b2" stroke-width="4.0" fill="#0000b2" />
<circle cx="580.0" cy="20.0" r="4.0" stroke="#0000b2" stroke-width="4.0" fill="#0000b2" />
<circle cx="740.0" cy="540.0" r="4.0" stroke="#0000b2" stroke-width="4.0" fill="#0000b2" />
<circle cx="340.0" cy="-160.0" r="4.0" stroke="#0000b2" stroke-width="4.0" fill="#0000b2" />
<circle cx="340.0" cy="-420.0" r="4.0" stroke="#0000b2" stroke-width="4.0" fill="#0000b2" />
<circle cx="340.0" cy="100.0" r="4.0" stroke="#0000b2" stroke-width="4.0" fill="#0000b2" />
<circle cx="740.0" cy="420.0" r="4.0" stroke="#0000b2" stroke-width="4.0" fill="#0000b2" />
<circle cx="320.0" cy="180.0" r="4.0" stroke="#0000b2" stroke-width="4.0" fill="#0000b2" />
<circle cx="580.0" cy="-120.0" r="4.0" stroke="#0000b2" stroke-width="4.0" fill="#0000b2" />
<circle cx="580.0" cy="-380.0" r="4.0" stroke="#0000b2" stroke-width="4.0" fill="#0000b2" />
</g>
<g>
<path d="M 249,85 L 279,85 L 279,115 L 249,115 Z" stroke="#000000" stroke-width="4.0" fill="none"/>
<circle cx="264.0" cy="100.0" r="9.0" stroke="#000000" stroke-width="4.0" fill="none" />
<text text-anchor="end" x="235.0" y="109.0" fill="#000000" style="font-size:24px"><tspan style="font-style:italic;">relogio</tspan></text>
<circle cx="280.0" cy="100.0" r="2.0" stroke="#b20000" stroke-width="4.0" fill="#b20000" />
</g>
<g>
<path d="M 249,165 L 279,165 L 279,195 L 249,195 Z" stroke="#000000" stroke-width="4.0" fill="none"/>
<circle cx="264.0" cy="180.0" r="9.0" stroke="#000000" stroke-width="4.0" fill="none" />
<text text-anchor="end" x="235.0" y="189.0" fill="#000000" style="font-size:24px"><tspan style="font-style:italic;">inicializa</tspan></text>
<circle cx="280.0" cy="180.0" r="2.0" stroke="#b20000" stroke-width="4.0" fill="#b20000" />
</g>
<g>
<path d="M 249,245 L 279,245 L 279,275 L 249,275 Z" stroke="#000000" stroke-width="4.0" fill="none"/>
<circle cx="264.0" cy="260.0" r="9.0" stroke="#000000" stroke-width="4.0" fill="none" />
<text text-anchor="end" x="235.0" y="269.0" fill="#000000" style="font-size:24px"><tspan style="font-style:italic;">vs</tspan></text>
<circle cx="280.0" cy="260.0" r="2.0" stroke="#b20000" stroke-width="4.0" fill="#b20000" />
</g>
<g>
<path d="M 249,325 L 279,325 L 279,355 L 249,355 Z" stroke="#000000" stroke-width="4.0" fill="none"/>
<circle cx="264.0" cy="340.0" r="9.0" stroke="#000000" stroke-width="4.0" fill="none" />
<text text-anchor="end" x="235.0" y="349.0" fill="#000000" style="font-size:24px"><tspan style="font-style:italic;">sobe1</tspan></text>
<circle cx="280.0" cy="340.0" r="2.0" stroke="#b20000" stroke-width="4.0" fill="#b20000" />
</g>
<g>
<path d="M 249,385 L 279,385 L 279,415 L 249,415 Z" stroke="#000000" stroke-width="4.0" fill="none"/>
<circle cx="264.0" cy="400.0" r="9.0" stroke="#000000" stroke-width="4.0" fill="none" />
<text text-anchor="end" x="235.0" y="409.0" fill="#000000" style="font-size:24px"><tspan style="font-style:italic;">desce1</tspan></text>
<circle cx="280.0" cy="400.0" r="2.0" stroke="#b20000" stroke-width="4.0" fill="#b20000" />
</g>
<g>
<path d="M 249,505 L 279,505 L 279,535 L 249,535 Z" stroke="#000000" stroke-width="4.0" fill="none"/>
<circle cx="264.0" cy="520.0" r="9.0" stroke="#000000" stroke-width="4.0" fill="none" />
<text text-anchor="end" x="235.0" y="529.0" fill="#000000" style="font-size:24px"><tspan style="font-style:italic;">sobe2</tspan></text>
<circle cx="280.0" cy="520.0" r="2.0" stroke="#b20000" stroke-width="4.0" fill="#b20000" />
</g>
<g>
<path d="M 249,565 L 279,565 L 279,595 L 249,595 Z" stroke="#000000" stroke-width="4.0" fill="none"/>
<circle cx="264.0" cy="580.0" r="9.0" stroke="#000000" stroke-width="4.0" fill="none" />
<text text-anchor="end" x="235.0" y="589.0" fill="#000000" style="font-size:24px"><tspan style="font-style:italic;">desce2</tspan></text>
<circle cx="280.0" cy="580.0" r="2.0" stroke="#b20000" stroke-width="4.0" fill="#b20000" />
</g>
<g>
<circle cx="1176.0" cy="-160.0" r="9.0" stroke="#000000" stroke-width="4.0" fill="none" />
<circle cx="1176.0" cy="-160.0" r="15.0" stroke="#000000" stroke-width="4.0" fill="none" />
<text text-anchor="start" x="1205.0" y="-151.0" fill="#000000" style="font-size:24px"><tspan style="font-style:italic;">bolax</tspan></text>
<circle cx="1160.0" cy="-160.0" r="2.0" stroke="#0000b2" stroke-width="4.0" fill="#0000b2" />
</g>
<g>
<circle cx="1176.0" cy="-100.0" r="9.0" stroke="#000000" stroke-width="4.0" fill="none" />
<circle cx="1176.0" cy="-100.0" r="15.0" stroke="#000000" stroke-width="4.0" fill="none" />
<text text-anchor="start" x="1205.0" y="-91.0" fill="#000000" style="font-size:24px"><tspan style="font-style:italic;">bolay</tspan></text>
<circle cx="1160.0" cy="-100.0" r="2.0" stroke="#0000b2" stroke-width="4.0" fill="#0000b2" />
</g>
<g>
<circle cx="1176.0" cy="-40.0" r="9.0" stroke="#000000" stroke-width="4.0" fill="none" />
<circle cx="1176.0" cy="-40.0" r="15.0" stroke="#000000" stroke-width="4.0" fill="none" />
<text text-anchor="start" x="1205.0" y="-31.0" fill="#000000" style="font-size:24px"><tspan style="font-style:italic;">j1y</tspan></text>
<circle cx="1160.0" cy="-40.0" r="2.0" stroke="#0000b2" stroke-width="4.0" fill="#0000b2" />
</g>
<g>
<circle cx="1176.0" cy="20.0" r="9.0" stroke="#000000" stroke-width="4.0" fill="none" />
<circle cx="1176.0" cy="20.0" r="15.0" stroke="#000000" stroke-width="4.0" fill="none" />
<text text-anchor="start" x="1205.0" y="29.0" fill="#000000" style="font-size:24px"><tspan style="font-style:italic;">j2y</tspan></text>
<circle cx="1160.0" cy="20.0" r="2.0" stroke="#0000b2" stroke-width="4.0" fill="#0000b2" />
</g>
<g>
<circle cx="1036.0" cy="380.0" r="9.0" stroke="#000000" stroke-width="4.0" fill="none" />
<circle cx="1036.0" cy="380.0" r="15.0" stroke="#000000" stroke-width="4.0" fill="none" />
<text text-anchor="start" x="1065.0" y="389.0" fill="#000000" style="font-size:24px"><tspan style="font-style:italic;">digito1</tspan></text>
<circle cx="1020.0" cy="380.0" r="2.0" stroke="#0000b2" stroke-width="4.0" fill="#0000b2" />
</g>
<g>
<circle cx="1036.0" cy="500.0" r="9.0" stroke="#000000" stroke-width="4.0" fill="none" />
<circle cx="1036.0" cy="500.0" r="15.0" stroke="#000000" stroke-width="4.0" fill="none" />
<text text-anchor="start" x="1065.0" y="509.0" fill="#000000" style="font-size:24px"><tspan style="font-style:italic;">digito2</tspan></text>
<circle cx="1020.0" cy="500.0" r="2.0" stroke="#0000b2" stroke-width="4.0" fill="#0000b2" />
</g>
<g>
<circle cx="1036.0" cy="440.0" r="9.0" stroke="#000000" stroke-width="4.0" fill="none" />
<circle cx="1036.0" cy="440.0" r="15.0" stroke="#000000" stroke-width="4.0" fill="none" />
<text text-anchor="start" x="1065.0" y="449.0" fill="#000000" style="font-size:24px"><tspan style="font-style:italic;">digito10</tspan></text>
<circle cx="1020.0" cy="440.0" r="2.0" stroke="#0000b2" stroke-width="4.0" fill="#0000b2" />
</g>
<g>
<circle cx="1036.0" cy="560.0" r="9.0" stroke="#000000" stroke-width="4.0" fill="none" />
<circle cx="1036.0" cy="560.0" r="15.0" stroke="#000000" stroke-width="4.0" fill="none" />
<text text-anchor="start" x="1065.0" y="569.0" fill="#000000" style="font-size:24px"><tspan style="font-style:italic;">digito20</tspan></text>
<circle cx="1020.0" cy="560.0" r="2.0" stroke="#0000b2" stroke-width="4.0" fill="#0000b2" />
</g>
<g>
<path d="M 249,665 L 279,665 L 279,695 L 249,695 Z" stroke="#000000" stroke-width="4.0" fill="none"/>
<circle cx="264.0" cy="680.0" r="9.0" stroke="#000000" stroke-width="4.0" fill="none" />
<text text-anchor="end" x="235.0" y="689.0" fill="#000000" style="font-size:24px"><tspan style="font-style:italic;">colj1</tspan></text>
<circle cx="280.0" cy="680.0" r="2.0" stroke="#b20000" stroke-width="4.0" fill="#b20000" />
</g>
<g>
<path d="M 249,745 L 279,745 L 279,775 L 249,775 Z" stroke="#000000" stroke-width="4.0" fill="none"/>
<circle cx="264.0" cy="760.0" r="9.0" stroke="#000000" stroke-width="4.0" fill="none" />
<text text-anchor="end" x="235.0" y="769.0" fill="#000000" style="font-size:24px"><tspan style="font-style:italic;">colj2</tspan></text>
<circle cx="280.0" cy="760.0" r="2.0" stroke="#b20000" stroke-width="4.0" fill="#b20000" />
</g>
<g>
<path d="M 381,250 L 439,250 L 439,290 L 381,290 Z" stroke="#000000" stroke-width="4.0" fill="none"/>
<text text-anchor="start" x="384.0" y="266.75" fill="#808080" style="font-size:18px">D</text>
<path d="M 381,287 L 388,280 L 381,273" stroke="#000000" stroke-width="2.0" fill="none"/>
<text text-anchor="start" x="391.0" y="286.75" fill="#808080" style="font-size:18px">C</text>
<text text-anchor="end" x="436.0" y="266.75" fill="#808080" style="font-size:18px">Q</text>
<text text-anchor="end" x="436.0" y="286.75" fill="#808080" style="font-size:18px"><tspan style="text-decoration:overline;">Q</tspan></text>
<text text-anchor="middle" x="410.0" y="307.5" fill="#808080" style="font-size:18px">D</text>
<circle cx="380.0" cy="260.0" r="2.0" stroke="#0000b2" stroke-width="4.0" fill="#0000b2" />
<circle cx="380.0" cy="280.0" r="2.0" stroke="#0000b2" stroke-width="4.0" fill="#0000b2" />
<circle cx="440.0" cy="260.0" r="2.0" stroke="#b20000" stroke-width="4.0" fill="#b20000" />
<circle cx="440.0" cy="280.0" r="2.0" stroke="#b20000" stroke-width="4.0" fill="#b20000" />
</g>
<g>
<path d="M 530,290 L 481,290 L 481,230 L 530,230 C 540,230 560,240 559,260 C 559,280 540,290 530,290 Z" stroke="#000000" stroke-width="4.0" fill="none"/>
<circle cx="480.0" cy="240.0" r="2.0" stroke="#0000b2" stroke-width="4.0" fill="#0000b2" />
<circle cx="480.0" cy="280.0" r="2.0" stroke="#0000b2" stroke-width="4.0" fill="#0000b2" />
<circle cx="560.0" cy="260.0" r="2.0" stroke="#b20000" stroke-width="4.0" fill="#b20000" />
</g>
<g>
<path d="M 670,410 L 621,410 L 621,350 L 670,350 C 680,350 700,360 699,380 C 699,400 680,410 670,410 Z" stroke="#000000" stroke-width="4.0" fill="none"/>
<circle cx="620.0" cy="360.0" r="2.0" stroke="#0000b2" stroke-width="4.0" fill="#0000b2" />
<circle cx="620.0" cy="400.0" r="2.0" stroke="#0000b2" stroke-width="4.0" fill="#0000b2" />
<circle cx="700.0" cy="380.0" r="2.0" stroke="#b20000" stroke-width="4.0" fill="#b20000" />
</g>
<g>
<path d="M 670,610 L 621,610 L 621,550 L 670,550 C 680,550 700,560 699,580 C 699,600 680,610 670,610 Z" stroke="#000000" stroke-width="4.0" fill="none"/>
<circle cx="620.0" cy="560.0" r="2.0" stroke="#0000b2" stroke-width="4.0" fill="#0000b2" />
<circle cx="620.0" cy="600.0" r="2.0" stroke="#0000b2" stroke-width="4.0" fill="#0000b2" />
<circle cx="700.0" cy="580.0" r="2.0" stroke="#b20000" stroke-width="4.0" fill="#b20000" />
</g>
<g>
<path d="M 841,386 L 959,386 L 959,454 L 841,454 Z" stroke="#ffffb4" stroke-width="0.0" fill="#ffffb4" fill-opacity="0.7843137254901961"/>
<path d="M 841,386 L 959,386 L 959,454 L 841,454 Z" stroke="#000000" stroke-width="4.0" fill="none"/>
<text text-anchor="start" x="844.0" y="406.75" fill="#808080" style="font-size:18px">relogio</text>
<text text-anchor="start" x="844.0" y="426.75" fill="#808080" style="font-size:18px">inicializa</text>
<text text-anchor="start" x="844.0" y="446.75" fill="#808080" style="font-size:18px">conta</text>
<text text-anchor="end" x="956.0" y="406.75" fill="#808080" style="font-size:18px">digito1</text>
<text text-anchor="end" x="956.0" y="426.75" fill="#808080" style="font-size:18px">digito10</text>
<text text-anchor="middle" x="900.0" y="471.5" fill="#808080" style="font-size:18px">placar</text>
<circle cx="840.0" cy="400.0" r="2.0" stroke="#0000b2" stroke-width="4.0" fill="#0000b2" />
<circle cx="840.0" cy="420.0" r="2.0" stroke="#0000b2" stroke-width="4.0" fill="#0000b2" />
<circle cx="840.0" cy="440.0" r="2.0" stroke="#0000b2" stroke-width="4.0" fill="#0000b2" />
<circle cx="960.0" cy="400.0" r="2.0" stroke="#b20000" stroke-width="4.0" fill="#b20000" />
<circle cx="960.0" cy="420.0" r="2.0" stroke="#b20000" stroke-width="4.0" fill="#b20000" />
</g>
<g>
<path d="M 841,506 L 959,506 L 959,574 L 841,574 Z" stroke="#ffffb4" stroke-width="0.0" fill="#ffffb4" fill-opacity="0.7843137254901961"/>
<path d="M 841,506 L 959,506 L 959,574 L 841,574 Z" stroke="#000000" stroke-width="4.0" fill="none"/>
<text text-anchor="start" x="844.0" y="526.75" fill="#808080" style="font-size:18px">relogio</text>
<text text-anchor="start" x="844.0" y="546.75" fill="#808080" style="font-size:18px">inicializa</text>
<text text-anchor="start" x="844.0" y="566.75" fill="#808080" style="font-size:18px">conta</text>
<text text-anchor="end" x="956.0" y="526.75" fill="#808080" style="font-size:18px">digito1</text>
<text text-anchor="end" x="956.0" y="546.75" fill="#808080" style="font-size:18px">digito10</text>
<text text-anchor="middle" x="900.0" y="591.5" fill="#808080" style="font-size:18px">placar</text>
<circle cx="840.0" cy="520.0" r="2.0" stroke="#0000b2" stroke-width="4.0" fill="#0000b2" />
<circle cx="840.0" cy="540.0" r="2.0" stroke="#0000b2" stroke-width="4.0" fill="#0000b2" />
<circle cx="840.0" cy="560.0" r="2.0" stroke="#0000b2" stroke-width="4.0" fill="#0000b2" />
<circle cx="960.0" cy="520.0" r="2.0" stroke="#b20000" stroke-width="4.0" fill="#b20000" />
<circle cx="960.0" cy="540.0" r="2.0" stroke="#b20000" stroke-width="4.0" fill="#b20000" />
</g>
<g>
<path d="M 801,-34 L 919,-34 L 919,74 L 801,74 Z" stroke="#ffffb4" stroke-width="0.0" fill="#ffffb4" fill-opacity="0.7843137254901961"/>
<path d="M 801,-34 L 919,-34 L 919,74 L 801,74 Z" stroke="#000000" stroke-width="4.0" fill="none"/>
<text text-anchor="start" x="804.0" y="-13.25" fill="#808080" style="font-size:18px">relogio</text>
<text text-anchor="start" x="804.0" y="6.75" fill="#808080" style="font-size:18px">inicializa</text>
<text text-anchor="start" x="804.0" y="26.75" fill="#808080" style="font-size:18px">move</text>
<text text-anchor="start" x="804.0" y="46.75" fill="#808080" style="font-size:18px">sobe</text>
<text text-anchor="start" x="804.0" y="66.75" fill="#808080" style="font-size:18px">desce</text>
<text text-anchor="end" x="916.0" y="26.75" fill="#808080" style="font-size:18px">y</text>
<text text-anchor="middle" x="860.0" y="91.5" fill="#808080" style="font-size:18px">raquete</text>
<circle cx="800.0" cy="-20.0" r="2.0" stroke="#0000b2" stroke-width="4.0" fill="#0000b2" />
<circle cx="800.0" cy="0.0" r="2.0" stroke="#0000b2" stroke-width="4.0" fill="#0000b2" />
<circle cx="800.0" cy="20.0" r="2.0" stroke="#0000b2" stroke-width="4.0" fill="#0000b2" />
<circle cx="800.0" cy="40.0" r="2.0" stroke="#0000b2" stroke-width="4.0" fill="#0000b2" />
<circle cx="800.0" cy="60.0" r="2.0" stroke="#0000b2" stroke-width="4.0" fill="#0000b2" />
<circle cx="920.0" cy="20.0" r="2.0" stroke="#b20000" stroke-width="4.0" fill="#b20000" />
</g>
<g>
<path d="M 801,-174 L 919,-174 L 919,-66 L 801,-66 Z" stroke="#ffffb4" stroke-width="0.0" fill="#ffffb4" fill-opacity="0.7843137254901961"/>
<path d="M 801,-174 L 919,-174 L 919,-66 L 801,-66 Z" stroke="#000000" stroke-width="4.0" fill="none"/>
<text text-anchor="start" x="804.0" y="-153.25" fill="#808080" style="font-size:18px">relogio</text>
<text text-anchor="start" x="804.0" y="-133.25" fill="#808080" style="font-size:18px">inicializa</text>
<text text-anchor="start" x="804.0" y="-113.25" fill="#808080" style="font-size:18px">move</text>
<text text-anchor="start" x="804.0" y="-93.25" fill="#808080" style="font-size:18px">sobe</text>
<text text-anchor="start" x="804.0" y="-73.25" fill="#808080" style="font-size:18px">desce</text>
<text text-anchor="end" x="916.0" y="-113.25" fill="#808080" style="font-size:18px">y</text>
<text text-anchor="middle" x="860.0" y="-48.5" fill="#808080" style="font-size:18px">raquete</text>
<circle cx="800.0" cy="-160.0" r="2.0" stroke="#0000b2" stroke-width="4.0" fill="#0000b2" />
<circle cx="800.0" cy="-140.0" r="2.0" stroke="#0000b2" stroke-width="4.0" fill="#0000b2" />
<circle cx="800.0" cy="-120.0" r="2.0" stroke="#0000b2" stroke-width="4.0" fill="#0000b2" />
<circle cx="800.0" cy="-100.0" r="2.0" stroke="#0000b2" stroke-width="4.0" fill="#0000b2" />
<circle cx="800.0" cy="-80.0" r="2.0" stroke="#0000b2" stroke-width="4.0" fill="#0000b2" />
<circle cx="920.0" cy="-120.0" r="2.0" stroke="#b20000" stroke-width="4.0" fill="#b20000" />
</g>
<g>
<path d="M 801,-434 L 919,-434 L 919,-246 L 801,-246 Z" stroke="#ffffb4" stroke-width="0.0" fill="#ffffb4" fill-opacity="0.7843137254901961"/>
<path d="M 801,-434 L 919,-434 L 919,-246 L 801,-246 Z" stroke="#000000" stroke-width="4.0" fill="none"/>
<text text-anchor="start" x="804.0" y="-413.25" fill="#808080" style="font-size:18px">relogio</text>
<text text-anchor="start" x="804.0" y="-393.25" fill="#808080" style="font-size:18px">inicializa</text>
<text text-anchor="start" x="804.0" y="-373.25" fill="#808080" style="font-size:18px">move</text>
<text text-anchor="start" x="804.0" y="-353.25" fill="#808080" style="font-size:18px">centro</text>
<text text-anchor="start" x="804.0" y="-313.25" fill="#808080" style="font-size:18px">volta</text>
<text text-anchor="start" x="804.0" y="-293.25" fill="#808080" style="font-size:18px">reflete</text>
<text text-anchor="start" x="804.0" y="-273.25" fill="#808080" style="font-size:18px">sobe</text>
<text text-anchor="start" x="804.0" y="-253.25" fill="#808080" style="font-size:18px">desce</text>
<text text-anchor="end" x="916.0" y="-333.25" fill="#808080" style="font-size:18px">posicao</text>
<text text-anchor="middle" x="860.0" y="-228.5" fill="#808080" style="font-size:18px">bola1d</text>
<circle cx="800.0" cy="-420.0" r="2.0" stroke="#0000b2" stroke-width="4.0" fill="#0000b2" />
<circle cx="800.0" cy="-400.0" r="2.0" stroke="#0000b2" stroke-width="4.0" fill="#0000b2" />
<circle cx="800.0" cy="-380.0" r="2.0" stroke="#0000b2" stroke-width="4.0" fill="#0000b2" />
<circle cx="800.0" cy="-360.0" r="2.0" stroke="#0000b2" stroke-width="4.0" fill="#0000b2" />
<circle cx="800.0" cy="-320.0" r="2.0" stroke="#0000b2" stroke-width="4.0" fill="#0000b2" />
<circle cx="800.0" cy="-300.0" r="2.0" stroke="#0000b2" stroke-width="4.0" fill="#0000b2" />
<circle cx="800.0" cy="-280.0" r="2.0" stroke="#0000b2" stroke-width="4.0" fill="#0000b2" />
<circle cx="800.0" cy="-260.0" r="2.0" stroke="#0000b2" stroke-width="4.0" fill="#0000b2" />
<circle cx="920.0" cy="-340.0" r="2.0" stroke="#b20000" stroke-width="4.0" fill="#b20000" />
</g>
<g>
<path d="M 801,-674 L 919,-674 L 919,-486 L 801,-486 Z" stroke="#ffffb4" stroke-width="0.0" fill="#ffffb4" fill-opacity="0.7843137254901961"/>
<path d="M 801,-674 L 919,-674 L 919,-486 L 801,-486 Z" stroke="#000000" stroke-width="4.0" fill="none"/>
<text text-anchor="start" x="804.0" y="-653.25" fill="#808080" style="font-size:18px">relogio</text>
<text text-anchor="start" x="804.0" y="-633.25" fill="#808080" style="font-size:18px">inicializa</text>
<text text-anchor="start" x="804.0" y="-613.25" fill="#808080" style="font-size:18px">move</text>
<text text-anchor="start" x="804.0" y="-593.25" fill="#808080" style="font-size:18px">centro</text>
<text text-anchor="start" x="804.0" y="-553.25" fill="#808080" style="font-size:18px">volta</text>
<text text-anchor="start" x="804.0" y="-533.25" fill="#808080" style="font-size:18px">reflete</text>
<text text-anchor="start" x="804.0" y="-513.25" fill="#808080" style="font-size:18px">sobe</text>
<text text-anchor="start" x="804.0" y="-493.25" fill="#808080" style="font-size:18px">desce</text>
<text text-anchor="end" x="916.0" y="-573.25" fill="#808080" style="font-size:18px">posicao</text>
<text text-anchor="middle" x="860.0" y="-468.5" fill="#808080" style="font-size:18px">bola1d</text>
<circle cx="800.0" cy="-660.0" r="2.0" stroke="#0000b2" stroke-width="4.0" fill="#0000b2" />
<circle cx="800.0" cy="-640.0" r="2.0" stroke="#0000b2" stroke-width="4.0" fill="#0000b2" />
<circle cx="800.0" cy="-620.0" r="2.0" stroke="#0000b2" stroke-width="4.0" fill="#0000b2" />
<circle cx="800.0" cy="-600.0" r="2.0" stroke="#0000b2" stroke-width="4.0" fill="#0000b2" />
<circle cx="800.0" cy="-560.0" r="2.0" stroke="#0000b2" stroke-width="4.0" fill="#0000b2" />
<circle cx="800.0" cy="-540.0" r="2.0" stroke="#0000b2" stroke-width="4.0" fill="#0000b2" />
<circle cx="800.0" cy="-520.0" r="2.0" stroke="#0000b2" stroke-width="4.0" fill="#0000b2" />
<circle cx="800.0" cy="-500.0" r="2.0" stroke="#0000b2" stroke-width="4.0" fill="#0000b2" />
<circle cx="920.0" cy="-580.0" r="2.0" stroke="#b20000" stroke-width="4.0" fill="#b20000" />
</g>
<g>
<text text-anchor="end" x="737.0" y="-591.0" fill="#000000" style="font-size:24px">320</text>
<circle cx="740.0" cy="-600.0" r="2.0" stroke="#b20000" stroke-width="4.0" fill="#b20000" />
</g>
<g>
<text text-anchor="end" x="737.0" y="-351.0" fill="#000000" style="font-size:24px">240</text>
<circle cx="740.0" cy="-360.0" r="2.0" stroke="#b20000" stroke-width="4.0" fill="#b20000" />
</g>
</g>
</svg>